<?xml version="1.0" encoding="UTF-8" standalone="no"?>
<!-- Created with Inkscape (http://www.inkscape.org/) -->

<svg
   xmlns:dc="http://purl.org/dc/elements/1.1/"
   xmlns:cc="http://creativecommons.org/ns#"
   xmlns:rdf="http://www.w3.org/1999/02/22-rdf-syntax-ns#"
   xmlns:svg="http://www.w3.org/2000/svg"
   xmlns="http://www.w3.org/2000/svg"
   xmlns:sodipodi="http://sodipodi.sourceforge.net/DTD/sodipodi-0.dtd"
   xmlns:inkscape="http://www.inkscape.org/namespaces/inkscape"
   width="120"
   height="120"
   viewBox="0 0 120 120"
   id="svg2"
   version="1.1"
   inkscape:version="0.92.3 (2405546, 2018-03-11)"
   sodipodi:docname="icons.svg">
  <defs
     id="defs4">
    <inkscape:perspective
       sodipodi:type="inkscape:persp3d"
       inkscape:vp_x="0 : 372.04723 : 1"
       inkscape:vp_y="0 : 999.99998 : 0"
       inkscape:vp_z="1052.3622 : 372.04723 : 1"
       inkscape:persp3d-origin="526.18109 : 248.0315 : 1"
       id="perspective4144" />
  </defs>
  <sodipodi:namedview
     id="base"
     pagecolor="#ffffff"
     bordercolor="#666666"
     borderopacity="1.0"
     inkscape:pageopacity="0.0"
     inkscape:pageshadow="2"
     inkscape:zoom="2.4901173"
     inkscape:cx="126.40995"
     inkscape:cy="125.90954"
     inkscape:document-units="px"
     inkscape:current-layer="layer1"
     showgrid="false"
     inkscape:window-width="1153"
     inkscape:window-height="897"
     inkscape:window-x="69"
     inkscape:window-y="-8"
     inkscape:window-maximized="1"
     units="px"
     showguides="true"
     inkscape:guide-bbox="true">
    <sodipodi:guide
       position="512,1192.1291"
       orientation="1,0"
       id="guide4381"
       inkscape:label=""
       inkscape:color="rgb(0,0,255)"
       inkscape:locked="false" />
  </sodipodi:namedview>
  <metadata
     id="metadata7">
    <rdf:RDF>
      <cc:Work
         rdf:about="">
        <dc:format>image/svg+xml</dc:format>
        <dc:type
           rdf:resource="http://purl.org/dc/dcmitype/StillImage" />
        <dc:title />
      </cc:Work>
    </rdf:RDF>
  </metadata>
  <g
     inkscape:label="Layer 1"
     inkscape:groupmode="layer"
     id="layer1"
     transform="translate(0,-932.36217)">
    <g
       transform="matrix(1.8470014,0,0,1.8470014,-8.9625285,-867.12916)"
       id="black-icon"
       inkscape:label="#g4483">
      <rect
         ry="0"
         rx="0"
         y="974.27722"
         x="4.8524776"
         height="64.970169"
         width="64.970169"
         id="rect5115"
         style="opacity:1;fill:none;fill-opacity:1;stroke:none;stroke-width:1;stroke-linecap:butt;stroke-linejoin:bevel;stroke-miterlimit:4;stroke-dasharray:none;stroke-dashoffset:0;stroke-opacity:1" />
      <g
         id="g5758"
         transform="matrix(1.0000042,0,0,1.0000042,5.3373079,-13.6045)">
        <path
           id="path5756"
           d="m 9.6601562,991.02539 c -0.5088896,0.0127 -0.9902582,0.17742 -1.390625,0.45703 -0.5339344,0.37266 -0.9278892,0.95374 -1.0507812,1.64453 l -7.6640625,43.09185 c -0.2456158,1.3807 0.67938508,2.7094 2.0605469,2.955 l 43.0917966,7.6641 c 0.689969,0.123 1.371636,-0.043 1.90625,-0.416 0.534297,-0.3729 0.926047,-0.9544 1.048828,-1.6446 l 7.666016,-43.0918 c 0.245653,-1.381 -0.681731,-2.70943 -2.0625,-2.95503 l -43.089844,-7.66602 -0.002,0 c -0.172065,-0.0305 -0.3445471,-0.0432 -0.5136718,-0.0391 z"
           style="color:#000000;font-style:normal;font-variant:normal;font-weight:normal;font-stretch:normal;font-size:medium;line-height:normal;font-family:sans-serif;text-indent:0;text-align:start;text-decoration:none;text-decoration-line:none;text-decoration-style:solid;text-decoration-color:#000000;letter-spacing:normal;word-spacing:normal;text-transform:none;direction:ltr;block-progression:tb;writing-mode:lr-tb;baseline-shift:baseline;text-anchor:start;white-space:normal;clip-rule:nonzero;display:inline;overflow:visible;visibility:visible;opacity:1;isolation:auto;mix-blend-mode:normal;color-interpolation:sRGB;color-interpolation-filters:linearRGB;solid-color:#000000;solid-opacity:1;fill:#000000;fill-opacity:1;fill-rule:nonzero;stroke:none;stroke-width:1.06666672;stroke-linecap:butt;stroke-linejoin:bevel;stroke-miterlimit:4;stroke-dasharray:none;stroke-dashoffset:0;stroke-opacity:1;color-rendering:auto;image-rendering:auto;shape-rendering:auto;text-rendering:auto;enable-background:accumulate"
           inkscape:connector-curvature="0" />
        <path
           id="path5103"
           d="m 9.6855472,992.0918 c 0.098396,-0.002 0.2006772,0.005 0.3027343,0.0234 l 43.0898435,7.66602 c 0.817409,0.1454 1.344606,0.89948 1.199219,1.71678 l -7.664063,43.0918 c -0.07274,0.4089 -0.298914,0.7404 -0.609375,0.9571 -0.310142,0.2167 -0.700251,0.3151 -1.109375,0.2422 L 1.8027344,1038.123 c -0.81701453,-0.1453 -1.34464304,-0.9012 -1.19921878,-1.7187 L 8.2695312,993.31445 c 0.072617,-0.40819 0.2985521,-0.74009 0.609375,-0.95703 0.2332121,-0.16287 0.5110503,-0.25827 0.8066407,-0.26562 z"
           style="color:#000000;font-style:normal;font-variant:normal;font-weight:normal;font-stretch:normal;font-size:medium;line-height:normal;font-family:sans-serif;text-indent:0;text-align:start;text-decoration:none;text-decoration-line:none;text-decoration-style:solid;text-decoration-color:#000000;letter-spacing:normal;word-spacing:normal;text-transform:none;direction:ltr;block-progression:tb;writing-mode:lr-tb;baseline-shift:baseline;text-anchor:start;white-space:normal;clip-rule:nonzero;display:inline;overflow:visible;visibility:visible;opacity:1;isolation:auto;mix-blend-mode:normal;color-interpolation:sRGB;color-interpolation-filters:linearRGB;solid-color:#000000;solid-opacity:1;fill:#ffffff;fill-opacity:1;fill-rule:nonzero;stroke:none;stroke-width:1.06666672;stroke-linecap:butt;stroke-linejoin:bevel;stroke-miterlimit:4;stroke-dasharray:none;stroke-dashoffset:0;stroke-opacity:1;color-rendering:auto;image-rendering:auto;shape-rendering:auto;text-rendering:auto;enable-background:accumulate"
           inkscape:connector-curvature="0" />
        <path
           id="path5747"
           transform="matrix(0.54141811,0,0,0.54141811,-461.42656,993.50313)"
           d="m 889.86719,-6.4414062 c -0.60867,0.041742 -1.19972,0.1995219 -1.74219,0.4648437 -1.08133,0.5287965 -1.96044,1.4783968 -2.38086,2.703125 L 859.49219,73.185547 c -0.84109,2.449863 0.4715,5.139344 2.92187,5.980469 l 76.45899,26.248044 c 1.22509,0.42075 2.51812,0.30902 3.59961,-0.2207 1.08162,-0.52861 1.96241,-1.48052 2.38281,-2.70508 l 26.25,-76.455077 c 0.84121,-2.450417 -0.47619,-5.141482 -2.92578,-5.982422 L 891.7207,-6.1953125 c -0.61398,-0.2107429 -1.24395,-0.2877621 -1.85351,-0.2460937 z"
           style="color:#000000;font-style:normal;font-variant:normal;font-weight:normal;font-stretch:normal;font-size:medium;line-height:normal;font-family:sans-serif;text-indent:0;text-align:start;text-decoration:none;text-decoration-line:none;text-decoration-style:solid;text-decoration-color:#000000;letter-spacing:normal;word-spacing:normal;text-transform:none;direction:ltr;block-progression:tb;writing-mode:lr-tb;baseline-shift:baseline;text-anchor:start;white-space:normal;clip-rule:nonzero;display:inline;overflow:visible;visibility:visible;opacity:1;isolation:auto;mix-blend-mode:normal;color-interpolation:sRGB;color-interpolation-filters:linearRGB;solid-color:#000000;solid-opacity:1;fill:#000000;fill-opacity:1;fill-rule:nonzero;stroke:none;stroke-width:1.06666672;stroke-linecap:butt;stroke-linejoin:bevel;stroke-miterlimit:4;stroke-dasharray:none;stroke-dashoffset:0;stroke-opacity:1;color-rendering:auto;image-rendering:auto;shape-rendering:auto;text-rendering:auto;enable-background:accumulate"
           inkscape:connector-curvature="0" />
        <path
           id="path5752"
           d="m 49.382812,994.71289 c -0.17207,-0.009 -0.344486,8.3e-4 -0.515624,0.0273 l -43.2597661,6.64651 c -1.3864207,0.213 -2.3438336,1.52 -2.1308594,2.9063 l 6.6445315,43.2597 c 0.106574,0.6934 0.486981,1.2829 1.011718,1.668 l 0,0 c 0.525057,0.3852 1.201285,0.5675 1.894532,0.4609 l 43.261718,-6.6445 c 1.386426,-0.213 2.343834,-1.52 2.13086,-2.9063 l -6.646484,-43.25979 c -0.106573,-0.69335 -0.484909,-1.28485 -1.009766,-1.66993 -0.392461,-0.28793 -0.86992,-0.46277 -1.376953,-0.48828 -0.0015,-7e-5 -0.0024,-0.002 -0.0039,-0.002 z"
           style="color:#000000;font-style:normal;font-variant:normal;font-weight:normal;font-stretch:normal;font-size:medium;line-height:normal;font-family:sans-serif;text-indent:0;text-align:start;text-decoration:none;text-decoration-line:none;text-decoration-style:solid;text-decoration-color:#000000;letter-spacing:normal;word-spacing:normal;text-transform:none;direction:ltr;block-progression:tb;writing-mode:lr-tb;baseline-shift:baseline;text-anchor:start;white-space:normal;clip-rule:nonzero;display:inline;overflow:visible;visibility:visible;opacity:1;isolation:auto;mix-blend-mode:normal;color-interpolation:sRGB;color-interpolation-filters:linearRGB;solid-color:#000000;solid-opacity:1;fill:#000000;fill-opacity:1;fill-rule:nonzero;stroke:none;stroke-width:1.06666672;stroke-linecap:butt;stroke-linejoin:bevel;stroke-miterlimit:4;stroke-dasharray:none;stroke-dashoffset:0;stroke-opacity:1;color-rendering:auto;image-rendering:auto;shape-rendering:auto;text-rendering:auto;enable-background:accumulate"
           inkscape:connector-curvature="0" />
        <path
           id="path5111"
           d="m 48.824219,995.24609 0.507812,0.53321 c 0.295066,0.0143 0.571451,0.11495 0.800781,0.2832 0.305757,0.22433 0.524863,0.56065 0.587891,0.9707 l 6.644531,43.2617 c 0.126066,0.8206 -0.417879,1.5634 -1.238281,1.6895 l -43.261719,6.6465 c -0.410147,0.063 -0.796007,-0.045 -1.101562,-0.2696 -0.305867,-0.2245 -0.524865,-0.5606 -0.587891,-0.9707 L 4.53125,1004.1309 c -0.1260658,-0.8206 0.4178857,-1.5635 1.2382812,-1.6895 l 43.2597658,-6.64648 0.002,0 c 0.104065,-0.0161 0.203608,-0.0206 0.298828,-0.0156 l -0.505859,-0.53321 z"
           style="color:#000000;font-style:normal;font-variant:normal;font-weight:normal;font-stretch:normal;font-size:medium;line-height:normal;font-family:sans-serif;text-indent:0;text-align:start;text-decoration:none;text-decoration-line:none;text-decoration-style:solid;text-decoration-color:#000000;letter-spacing:normal;word-spacing:normal;text-transform:none;direction:ltr;block-progression:tb;writing-mode:lr-tb;baseline-shift:baseline;text-anchor:start;white-space:normal;clip-rule:nonzero;display:inline;overflow:visible;visibility:visible;opacity:1;isolation:auto;mix-blend-mode:normal;color-interpolation:sRGB;color-interpolation-filters:linearRGB;solid-color:#000000;solid-opacity:1;fill:#ffffff;fill-opacity:1;fill-rule:nonzero;stroke:none;stroke-width:1.06666672;stroke-linecap:butt;stroke-linejoin:bevel;stroke-miterlimit:4;stroke-dasharray:none;stroke-dashoffset:0;stroke-opacity:1;color-rendering:auto;image-rendering:auto;shape-rendering:auto;text-rendering:auto;enable-background:accumulate"
           inkscape:connector-curvature="0" />
      </g>
    </g>
    <g
       transform="matrix(1.8749998,0,0,1.8749998,128,-920.81668)"
       id="color-icon"
       inkscape:label="#g4483">
      <g
         transform="translate(-120.54681,62.862926)"
         id="g5156">
        <path
           inkscape:connector-curvature="0"
           id="path5158"
           d="m 129.12063,929.05676 c -0.42238,0.2948 -0.73173,0.7515 -0.82948,1.301 l -7.66537,43.09127 c -0.19552,1.0991 0.53185,2.1413 1.63094,2.3368 l 43.09127,7.6653 c 0.54955,0.098 1.08488,-0.035 1.50726,-0.3299 l -37.73462,-54.06447 z"
           style="opacity:1;fill:#00b561;fill-opacity:1;stroke:#00b561;stroke-width:0.09453182;stroke-linecap:butt;stroke-linejoin:bevel;stroke-miterlimit:4;stroke-dasharray:none;stroke-dashoffset:0;stroke-opacity:1" />
        <path
           inkscape:connector-curvature="0"
           id="path5160"
           d="m 129.12063,929.05676 37.73462,54.06447 c 0.42238,-0.2948 0.73188,-0.7516 0.82964,-1.3011 l 7.66536,-43.0913 c 0.19552,-1.0991 -0.53185,-2.1413 -1.63094,-2.3368 l -43.09127,-7.66527 c -0.54954,-0.098 -1.08503,0.035 -1.50741,0.33 z"
           style="opacity:1;fill:#00ca61;fill-opacity:1;stroke:#00b561;stroke-width:0.09453182;stroke-linecap:butt;stroke-linejoin:bevel;stroke-miterlimit:4;stroke-dasharray:none;stroke-dashoffset:0;stroke-opacity:1" />
        <path
           style="opacity:1;fill:#f89e20;fill-opacity:1;stroke:#f89e20;stroke-width:0.09453182;stroke-linecap:butt;stroke-linejoin:bevel;stroke-miterlimit:4;stroke-dasharray:none;stroke-dashoffset:0;stroke-opacity:1"
           d="m 140.20129,927.88326 c -0.46276,0.2263 -0.83875,0.6298 -1.02,1.1578 l -14.2118,41.39607 c -0.36249,1.0559 0.19566,2.1976 1.25152,2.5601 l 41.39613,14.2118 c 0.52793,0.1813 1.07734,0.1324 1.5401,-0.094 l -28.95595,-59.23197 z"
           id="path5162"
           inkscape:connector-curvature="0" />
        <path
           style="opacity:1;fill:#f8b520;fill-opacity:1;stroke:#f89e20;stroke-width:0.09453182;stroke-linecap:butt;stroke-linejoin:bevel;stroke-miterlimit:4;stroke-dasharray:none;stroke-dashoffset:0;stroke-opacity:1"
           d="m 140.20129,927.88326 28.95595,59.23197 c 0.46275,-0.2262 0.83892,-0.6299 1.02016,-1.1578 l 14.21179,-41.3961 c 0.36249,-1.0559 -0.19566,-2.1976 -1.25151,-2.5601 l -41.39613,-14.21177 c -0.52793,-0.1813 -1.07751,-0.1324 -1.54026,0.094 z"
           id="path5164"
           inkscape:connector-curvature="0" />
        <path
           style="opacity:1;fill:#ce3ad9;fill-opacity:1;stroke:#b43ad9;stroke-width:0.09453182;stroke-linecap:butt;stroke-linejoin:bevel;stroke-miterlimit:4;stroke-dasharray:none;stroke-dashoffset:0;stroke-opacity:1"
           d="m 131.99464,985.92893 c 0.41531,0.3047 0.94737,0.4502 1.49907,0.3654 l 43.26017,-6.6462 c 1.10341,-0.1695 1.85517,-1.1942 1.68565,-2.2976 l -6.64619,-43.26017 c -0.0848,-0.5517 -0.38325,-1.0155 -0.79856,-1.3202 l -39.00014,53.15877 z"
           id="path5166"
           inkscape:connector-curvature="0" />
        <path
           style="opacity:1;fill:#b43ad9;fill-opacity:1;stroke:#b43ad9;stroke-width:0.09453182;stroke-linecap:butt;stroke-linejoin:bevel;stroke-miterlimit:4;stroke-dasharray:none;stroke-dashoffset:0;stroke-opacity:1"
           d="m 131.99464,985.92893 39.00014,-53.15877 c -0.4153,-0.3047 -0.94749,-0.4503 -1.49919,-0.3656 l -43.26018,6.64627 c -1.10341,0.1695 -1.85516,1.1942 -1.68564,2.2976 l 6.64619,43.2602 c 0.0848,0.5517 0.38338,1.0156 0.79868,1.3203 z"
           id="path5168"
           inkscape:connector-curvature="0" />
      </g>
      <rect
         ry="0"
         rx="0"
         y="988.36218"
         x="0"
         height="64"
         width="64"
         id="rect5170"
         style="opacity:1;fill:none;fill-opacity:1;stroke:none;stroke-width:1;stroke-linecap:butt;stroke-linejoin:bevel;stroke-miterlimit:4;stroke-dasharray:none;stroke-dashoffset:0;stroke-opacity:1" />
    </g>
    <text
       xml:space="preserve"
       style="font-style:normal;font-weight:normal;font-size:4.79688215px;line-height:1.25;font-family:sans-serif;letter-spacing:0px;word-spacing:0px;fill:#000000;fill-opacity:1;stroke:none;stroke-width:0.11992204"
       x="0.5693031"
       y="830.50049"
       id="text323"><tspan
         sodipodi:role="line"
         id="tspan321"
         x="0.5693031"
         y="830.50049"
         style="stroke-width:0.11992204">Norma:</tspan><tspan
         sodipodi:role="line"
         x="0.5693031"
         y="836.49658"
         id="tspan325"
         style="stroke-width:0.11992204"> </tspan><tspan
         sodipodi:role="line"
         x="0.5693031"
         y="842.49268"
         id="tspan327"
         style="stroke-width:0.11992204">1. Desenhe uma versão da logo colorida e uma preto e branco.</tspan><tspan
         sodipodi:role="line"
         x="0.5693031"
         y="848.48877"
         id="tspan329"
         style="stroke-width:0.11992204">2. A logo deve ter exatamente 120x120px.</tspan><tspan
         sodipodi:role="line"
         x="0.5693031"
         y="854.48492"
         id="tspan331"
         style="stroke-width:0.11992204">    Acrescente uma quadrado transparente no fundo da logo com estas dimensões se necessário.</tspan><tspan
         sodipodi:role="line"
         x="0.5693031"
         y="860.48102"
         id="tspan333"
         style="stroke-width:0.11992204">3. A logo preto e branco deve estar exatamente dentro dos limites da página, que</tspan><tspan
         sodipodi:role="line"
         x="0.5693031"
         y="866.47711"
         id="tspan335"
         style="stroke-width:0.11992204">    também deve ter a dimensão de 120x120px.</tspan><tspan
         sodipodi:role="line"
         x="0.5693031"
         y="872.47321"
         id="tspan337"
         style="stroke-width:0.11992204">4. A logo colorida pode estar em qualquer lugar.</tspan><tspan
         sodipodi:role="line"
         x="0.5693031"
         y="878.4693"
         id="tspan339"
         style="stroke-width:0.11992204">5. Agrupe as partes da imagem para compor um único objeto.</tspan><tspan
         sodipodi:role="line"
         x="0.5693031"
         y="884.46539"
         id="tspan341"
         style="stroke-width:0.11992204">6. Nomeie os objetos como:</tspan><tspan
         sodipodi:role="line"
         x="0.5693031"
         y="890.46149"
         id="tspan343"
         style="stroke-width:0.11992204">    - &quot;color-icon&quot;</tspan><tspan
         sodipodi:role="line"
         x="0.5693031"
         y="896.45764"
         id="tspan345"
         style="stroke-width:0.11992204">    - &quot;black-icon&quot;</tspan><tspan
         sodipodi:role="line"
         x="0.5693031"
         y="902.45374"
         id="tspan347"
         style="stroke-width:0.11992204">    Para as versões colorida e preto e branco respectivamente.</tspan><tspan
         sodipodi:role="line"
         x="0.5693031"
         y="908.44983"
         style="stroke-width:0.11992204"
         id="tspan4517">    Estes nomes são referenciados no script de exportação automática.</tspan></text>
    <text
       id="text4324"
       y="926.48071"
       x="0.24841791"
       style="font-style:normal;font-weight:normal;font-size:4.79688215px;line-height:1.25;font-family:sans-serif;letter-spacing:0px;word-spacing:0px;fill:#000000;fill-opacity:1;stroke:none;stroke-width:0.11992204"
       xml:space="preserve"><tspan
         style="stroke-width:0.11992204"
         id="tspan4322"
         y="926.48071"
         x="0.24841791"
         sodipodi:role="line">Ícone preto e branco</tspan></text>
    <text
       xml:space="preserve"
       style="font-style:normal;font-weight:normal;font-size:4.79688215px;line-height:1.25;font-family:sans-serif;letter-spacing:0px;word-spacing:0px;fill:#000000;fill-opacity:1;stroke:none;stroke-width:0.11992204"
       x="127.67911"
       y="926.48071"
       id="text4506"><tspan
         sodipodi:role="line"
         x="127.67911"
         y="926.48071"
         id="tspan4504"
         style="stroke-width:0.11992204">Ícone colorido</tspan></text>
  </g>
</svg>
